<svg xmlns="http://www.w3.org/2000/svg" xmlns:xlink="http://www.w3.org/1999/xlink" width="3125" zoomAndPan="magnify" viewBox="0 0 2343.75 2343.749891" height="3125" preserveAspectRatio="xMidYMid meet" version="1.2"><defs><clipPath id="f4147a047e"><path d="M 348 18 L 2192 18 L 2192 1778 L 348 1778 Z M 348 18 "/></clipPath><clipPath id="2d9d2e46eb"><path d="M 1287.484375 31.570312 L 1479.355469 623.371094 C 1489.699219 655.269531 1519.414062 676.875 1552.945312 676.875 L 2173.628906 676.875 C 2181.558594 676.875 2188.585938 681.976562 2191.039062 689.515625 C 2193.492188 697.050781 2190.816406 705.3125 2184.40625 709.980469 L 1682.191406 1075.652344 C 1655.070312 1095.402344 1643.722656 1130.347656 1654.070312 1162.261719 L 1845.941406 1754.0625 C 1848.382812 1761.589844 1845.699219 1769.832031 1839.292969 1774.476562 C 1832.886719 1779.125 1824.21875 1779.117188 1817.820312 1774.457031 L 1315.605469 1408.785156 C 1288.507812 1389.054688 1251.773438 1389.054688 1224.671875 1408.785156 L 722.457031 1774.457031 C 716.0625 1779.117188 707.390625 1779.125 700.988281 1774.476562 C 694.582031 1769.832031 691.894531 1761.589844 694.335938 1754.0625 L 886.207031 1162.261719 C 896.554688 1130.347656 885.207031 1095.402344 858.085938 1075.652344 L 355.871094 709.980469 C 349.464844 705.3125 346.785156 697.050781 349.242188 689.515625 C 351.695312 681.976562 358.722656 676.875 366.648438 676.875 L 987.332031 676.875 C 1020.863281 676.875 1050.578125 655.269531 1060.921875 623.371094 L 1252.792969 31.570312 C 1255.230469 24.054688 1262.234375 18.960938 1270.140625 18.960938 C 1278.042969 18.960938 1285.046875 24.054688 1287.484375 31.570312 Z M 1287.484375 31.570312 "/></clipPath><clipPath id="9f4531ff54"><path d="M 1880.582031 1982.210938 L 2229.875 1982.210938 L 2229.875 2331.5 L 1880.582031 2331.5 Z M 1880.582031 1982.210938 "/></clipPath><clipPath id="676d8aaf03"><path d="M 2055.226562 1982.210938 C 1958.773438 1982.210938 1880.582031 2060.402344 1880.582031 2156.855469 C 1880.582031 2253.308594 1958.773438 2331.5 2055.226562 2331.5 C 2151.683594 2331.5 2229.875 2253.308594 2229.875 2156.855469 C 2229.875 2060.402344 2151.683594 1982.210938 2055.226562 1982.210938 Z M 2055.226562 1982.210938 "/></clipPath><clipPath id="53be84abb0"><path d="M 41.976562 1632.917969 L 391.269531 1632.917969 L 391.269531 1982.210938 L 41.976562 1982.210938 Z M 41.976562 1632.917969 "/></clipPath><clipPath id="4779ba92df"><path d="M 216.625 1632.917969 C 120.167969 1632.917969 41.976562 1711.109375 41.976562 1807.5625 C 41.976562 1904.019531 120.167969 1982.210938 216.625 1982.210938 C 313.078125 1982.210938 391.269531 1904.019531 391.269531 1807.5625 C 391.269531 1711.109375 313.078125 1632.917969 216.625 1632.917969 Z M 216.625 1632.917969 "/></clipPath></defs><g id="e0d406da8a"><g clip-rule="nonzero" clip-path="url(#f4147a047e)"><g clip-rule="nonzero" clip-path="url(#2d9d2e46eb)"><path style=" stroke:none;fill-rule:nonzero;fill:#d3abdd;fill-opacity:1;" d="M 310.40625 -21.929688 L 2232.804688 -21.929688 L 2232.804688 1807.5625 L 310.40625 1807.5625 Z M 310.40625 -21.929688 "/></g></g><g clip-rule="nonzero" clip-path="url(#9f4531ff54)"><g clip-rule="nonzero" clip-path="url(#676d8aaf03)"><path style=" stroke:none;fill-rule:nonzero;fill:#d3abdd;fill-opacity:1;" d="M 1880.582031 1982.210938 L 2229.875 1982.210938 L 2229.875 2331.5 L 1880.582031 2331.5 Z M 1880.582031 1982.210938 "/></g></g><g clip-rule="nonzero" clip-path="url(#53be84abb0)"><g clip-rule="nonzero" clip-path="url(#4779ba92df)"><path style=" stroke:none;fill-rule:nonzero;fill:#d3abdd;fill-opacity:1;" d="M 41.976562 1632.917969 L 391.269531 1632.917969 L 391.269531 1982.210938 L 41.976562 1982.210938 Z M 41.976562 1632.917969 "/></g></g></g></svg>